/* XPM */
static char * F:\Dev\dankcoin\dankcoin\share\pixmaps\bitcoin32_xpm[] = {
"32 32 508 2",
"  	c None",
". 	c #998639",
"+ 	c #958236",
"@ 	c #937E33",
"# 	c #937E32",
"$ 	c #9B883B",
"% 	c #927D32",
"& 	c #947E30",
"* 	c #9A852E",
"= 	c #9E8D29",
"- 	c #A09325",
"; 	c #A09522",
"> 	c #A09224",
", 	c #9F8E2A",
"' 	c #9B862E",
") 	c #957F31",
"! 	c #9D8B3D",
"~ 	c #907C31",
"{ 	c #98822E",
"] 	c #A09326",
"^ 	c #9B9C16",
"/ 	c #929E0A",
"( 	c #8B9D03",
"_ 	c #879C00",
": 	c #859B00",
"< 	c #859C00",
"[ 	c #8A9C01",
"} 	c #939F0B",
"| 	c #9D9D18",
"1 	c #A39428",
"2 	c #99832F",
"3 	c #907C30",
"4 	c #9C8A3C",
"5 	c #958235",
"6 	c #937D2F",
"7 	c #A19426",
"8 	c #979F0F",
"9 	c #889C00",
"0 	c #839A00",
"a 	c #839900",
"b 	c #829800",
"c 	c #879B01",
"d 	c #91A122",
"e 	c #97A150",
"f 	c #B9BC90",
"g 	c #98A927",
"h 	c #819700",
"i 	c #889D01",
"j 	c #9A9F12",
"k 	c #A59529",
"l 	c #947E2F",
"m 	c #927E32",
"n 	c #99832E",
"o 	c #9E9D19",
"p 	c #869A00",
"q 	c #859A00",
"r 	c #8A9C0C",
"s 	c #9FAA50",
"t 	c #A0A678",
"u 	c #9EA08F",
"v 	c #B8BDAF",
"w 	c #D0D6C9",
"x 	c #BAC17A",
"y 	c #839800",
"z 	c #8A9D03",
"A 	c #A39D1D",
"B 	c #9B842F",
"C 	c #917E31",
"D 	c #937F34",
"E 	c #9B862D",
"F 	c #9AA011",
"G 	c #849B00",
"H 	c #849900",
"I 	c #8FA012",
"J 	c #C4C5AB",
"K 	c #ABACA2",
"L 	c #888B7D",
"M 	c #B0B19F",
"N 	c #B6BCA7",
"O 	c #BAC199",
"P 	c #8C9F0A",
"Q 	c #859900",
"R 	c #9EA016",
"S 	c #9E872F",
"T 	c #927F33",
"U 	c #98853A",
"V 	c #98822D",
"W 	c #99A011",
"X 	c #839B00",
"Y 	c #B1B777",
"Z 	c #AFAFAB",
"` 	c #A2A699",
" .	c #A9AB9C",
"..	c #B1B5A3",
"+.	c #B5BC9F",
"@.	c #93A41B",
"#.	c #9B832D",
"$.	c #99873D",
"%.	c #A99956",
"&.	c #917B2C",
"*.	c #9E9D18",
"=.	c #8A9B00",
"-.	c #899B00",
";.	c #869B00",
">.	c #95A624",
",.	c #ADAD60",
"'.	c #AEA579",
").	c #A7A488",
"!.	c #A7AA99",
"~.	c #A6AD88",
"{.	c #8C9F09",
"].	c #8A9C00",
"^.	c #839701",
"/.	c #A39E1E",
"(.	c #937C2C",
"_.	c #A79651",
":.	c #907B30",
"<.	c #688F03",
"[.	c #708F02",
"}.	c #889900",
"|.	c #879B00",
"1.	c #809800",
"2.	c #A69D19",
"3.	c #C0A033",
"4.	c #BDA039",
"5.	c #A39F34",
"6.	c #8A9C24",
"7.	c #869900",
"8.	c #728D03",
"9.	c #508704",
"0.	c #548F02",
"a.	c #849A00",
"b.	c #A69529",
"c.	c #9E8C43",
"d.	c #97812D",
"e.	c #969F0D",
"f.	c #749701",
"g.	c #3D8604",
"h.	c #3E8104",
"i.	c #528105",
"j.	c #829601",
"k.	c #AE9F28",
"l.	c #BC9F35",
"m.	c #BD9F34",
"n.	c #A89E1E",
"o.	c #829A00",
"p.	c #899C00",
"q.	c #768F02",
"r.	c #3B7D06",
"s.	c #397808",
"t.	c #3E790B",
"u.	c #799802",
"v.	c #9BA012",
"w.	c #99822E",
"x.	c #A08F48",
"y.	c #927E34",
"z.	c #9E9323",
"A.	c #889D00",
"B.	c #659503",
"C.	c #396416",
"D.	c #3B6615",
"E.	c #397A05",
"F.	c #758D02",
"G.	c #879B03",
"H.	c #B3A02D",
"I.	c #BC9F34",
"J.	c #AE9F29",
"K.	c #8B9E00",
"L.	c #658406",
"M.	c #33680C",
"N.	c #3F5B20",
"O.	c #457211",
"P.	c #809C01",
"Q.	c #879A00",
"R.	c #8A9E02",
"S.	c #A59528",
"T.	c #9A9C14",
"U.	c #899A00",
"V.	c #769B02",
"W.	c #408108",
"X.	c #3F6F14",
"Y.	c #365D15",
"Z.	c #728807",
"`.	c #899B04",
" +	c #B5A02F",
".+	c #BB9F34",
"++	c #B09F2A",
"@+	c #71840A",
"#+	c #3B6811",
"$+	c #3D8305",
"%+	c #599402",
"&+	c #A09D19",
"*+	c #957E2F",
"=+	c #9D8A41",
"-+	c #98842B",
";+	c #919E08",
">+	c #529601",
",+	c #447801",
"'+	c #4B750D",
")+	c #678307",
"!+	c #7B9401",
"~+	c #889B00",
"{+	c #899B03",
"]+	c #B59F2F",
"^+	c #869A01",
"/+	c #8A9D00",
"(+	c #6A8A01",
"_+	c #5A7B1A",
":+	c #536E1B",
"<+	c #476D02",
"[+	c #749C01",
"}+	c #959F0C",
"|+	c #9D872E",
"1+	c #9B893E",
"2+	c #968338",
"3+	c #9C8D27",
"4+	c #8A9D01",
"5+	c #8A9A00",
"6+	c #739A02",
"7+	c #4B6A09",
"8+	c #57702D",
"9+	c #4E761F",
"0+	c #7B9105",
"a+	c #AF9F2A",
"b+	c #929618",
"c+	c #557C22",
"d+	c #4B761C",
"e+	c #6A840F",
"f+	c #869C00",
"g+	c #8D9D04",
"h+	c #A28F2B",
"i+	c #968339",
"j+	c #9D9223",
"k+	c #879D00",
"l+	c #899A01",
"m+	c #7E9016",
"n+	c #378203",
"o+	c #76891E",
"p+	c #B5A02B",
"q+	c #889B04",
"r+	c #889B03",
"s+	c #B3A02E",
"t+	c #BD9F35",
"u+	c #AC9F27",
"v+	c #959C11",
"w+	c #C3A238",
"x+	c #828D1E",
"y+	c #438903",
"z+	c #889909",
"A+	c #889A00",
"B+	c #889C01",
"C+	c #9D9520",
"D+	c #7F9B01",
"E+	c #6A8D12",
"F+	c #B29A32",
"G+	c #C0A138",
"H+	c #AA9E25",
"I+	c #859B01",
"J+	c #BD9F36",
"K+	c #A69E21",
"L+	c #8B9C07",
"M+	c #B6A030",
"N+	c #BDA035",
"O+	c #BC9D37",
"P+	c #899612",
"Q+	c #A39626",
"R+	c #937E31",
"S+	c #9D9420",
"T+	c #969D0F",
"U+	c #BBA034",
"V+	c #BD9F37",
"W+	c #A19E1C",
"X+	c #819A00",
"Y+	c #AB9F26",
"Z+	c #A99F25",
"`+	c #AC9F26",
" @	c #899C03",
".@	c #A49626",
"+@	c #927E31",
"@@	c #979D12",
"#@	c #BCA035",
"$@	c #BBA035",
"%@	c #909C0B",
"&@	c #A29E1C",
"*@	c #BE9F37",
"=@	c #BDA036",
"-@	c #939C0E",
";@	c #969D11",
">@	c #B29F2C",
",@	c #899B05",
"'@	c #899C01",
")@	c #937F33",
"!@	c #968238",
"~@	c #8A9D02",
"{@	c #9A9D16",
"]@	c #BCA036",
"^@	c #C2A337",
"/@	c #B2A329",
"(@	c #A1A219",
"_@	c #C3A438",
":@	c #BCA332",
"<@	c #95A10D",
"[@	c #BAA530",
"}@	c #C6A738",
"|@	c #B7A32E",
"1@	c #8C9B08",
"2@	c #8D9D05",
"3@	c #A28E2B",
"4@	c #9C8A40",
"5@	c #99842C",
"6@	c #919E09",
"7@	c #8B9B06",
"8@	c #A09E1B",
"9@	c #979D13",
"0@	c #8F9C0A",
"a@	c #879B02",
"b@	c #819B00",
"c@	c #959A15",
"d@	c #5B4E1C",
"e@	c #4C4116",
"f@	c #45430E",
"g@	c #4E4316",
"h@	c #474011",
"i@	c #3F3F0B",
"j@	c #55471A",
"k@	c #6D5F1F",
"l@	c #818D09",
"m@	c #879E00",
"n@	c #989D14",
"o@	c #AA9F26",
"p@	c #959D11",
"q@	c #9D862E",
"r@	c #9B893F",
"s@	c #937D2E",
"t@	c #9A9C15",
"u@	c #989D15",
"v@	c #B49F2F",
"w@	c #BFA039",
"x@	c #A6A021",
"y@	c #8E990E",
"z@	c #2B3005",
"A@	c #1C1709",
"B@	c #1F1B0A",
"C@	c #1F1B09",
"D@	c #2A270B",
"E@	c #2E270F",
"F@	c #1B1A07",
"G@	c #131700",
"H@	c #262A04",
"I@	c #998E23",
"J@	c #BFA336",
"K@	c #C0A03A",
"L@	c #A59E20",
"M@	c #A19E1A",
"N@	c #917D33",
"O@	c #9F9324",
"P@	c #889E00",
"Q@	c #869A02",
"R@	c #969D12",
"S@	c #AA9F25",
"T@	c #B89F32",
"U@	c #C0A038",
"V@	c #C2A339",
"W@	c #9A892A",
"X@	c #27250A",
"Y@	c #221E0A",
"Z@	c #2C270E",
"`@	c #A6932F",
" #	c #B2A22D",
".#	c #3A390D",
"+#	c #211D0A",
"@#	c #1C170A",
"##	c #6F5E21",
"$#	c #B9A72D",
"%#	c #9F9D1B",
"&#	c #899D02",
"*#	c #A69429",
"=#	c #927E33",
"-#	c #9E8D44",
";#	c #96812D",
">#	c #8A9B05",
",#	c #A2A01B",
"'#	c #A09424",
")#	c #2D290D",
"!#	c #221F0A",
"~#	c #2A230D",
"{#	c #8A7828",
"]#	c #887A25",
"^#	c #302C0D",
"/#	c #1E1E06",
"(#	c #141502",
"_#	c #596504",
":#	c #8CA201",
"<#	c #9DA014",
"[#	c #9F8E46",
"}#	c #8F7A30",
"|#	c #A29326",
"1#	c #899D01",
"2#	c #909C0C",
"3#	c #A1A11A",
"4#	c #9A9222",
"5#	c #2B280C",
"6#	c #222008",
"7#	c #232009",
"8#	c #1A1808",
"9#	c #191608",
"0#	c #1D1909",
"a#	c #201D0A",
"b#	c #484411",
"c#	c #879607",
"d#	c #8B9D04",
"e#	c #A7952A",
"f#	c #8F7B30",
"g#	c #A79752",
"h#	c #907A2B",
"i#	c #A09D1A",
"j#	c #9B9E17",
"k#	c #B1A02D",
"l#	c #B1A228",
"m#	c #97941B",
"n#	c #242705",
"o#	c #181D00",
"p#	c #272708",
"q#	c #616D04",
"r#	c #657302",
"s#	c #647106",
"t#	c #7E8013",
"u#	c #A8A121",
"v#	c #A69E20",
"w#	c #927B2C",
"x#	c #A69550",
"y#	c #98873D",
"z#	c #97812C",
"A#	c #9CA013",
"B#	c #879A01",
"C#	c #869B01",
"D#	c #647600",
"E#	c #1E2201",
"F#	c #191D00",
"G#	c #272808",
"H#	c #748304",
"I#	c #8DA300",
"J#	c #8CA100",
"K#	c #899F00",
"L#	c #A2A118",
"M#	c #9A822E",
"N#	c #98863D",
"O#	c #917E33",
"P#	c #9B852E",
"Q#	c #9CA014",
"R#	c #829501",
"S#	c #222702",
"T#	c #131601",
"U#	c #171A01",
"V#	c #181706",
"W#	c #232704",
"X#	c #819501",
"Y#	c #A1A119",
"Z#	c #9D862F",
"`#	c #907D32",
" $	c #907D31",
".$	c #98822F",
"+$	c #A19D1C",
"@$	c #859801",
"#$	c #4B5602",
"$$	c #3E4702",
"%$	c #414A03",
"&$	c #414805",
"*$	c #4A5403",
"=$	c #849701",
"-$	c #9A832F",
";$	c #907D30",
">$	c #958136",
",$	c #927B2F",
"'$	c #A39328",
")$	c #889F00",
"!$	c #8AA000",
"~$	c #8BA000",
"{$	c #8A9F00",
"]$	c #9DA015",
"^$	c #A7942B",
"/$	c #927C2F",
"($	c #948135",
"_$	c #9C893B",
":$	c #8E7A30",
"<$	c #97812F",
"[$	c #A29328",
"}$	c #8D9E04",
"|$	c #8D9E05",
"1$	c #969F0E",
"2$	c #A09D1B",
"3$	c #A59429",
"4$	c #988130",
"5$	c #9B893B",
"6$	c #99863A",
"7$	c #927D30",
"8$	c #9F8D2B",
"9$	c #A19228",
"0$	c #A29525",
"a$	c #A29228",
"b$	c #A08D2C",
"c$	c #9B852F",
"d$	c #937D30",
"e$	c #99873B",
"f$	c #978538",
"g$	c #938035",
"h$	c #917D32",
"i$	c #917C31",
"                        . + @ # # @ + .                         ",
"                  $ % & * = - ; ; > , ' ) % $                   ",
"              ! ~ { ] ^ / ( _ : < _ [ } | 1 2 3 4               ",
"            5 6 7 8 9 0 a b c d e f g h 0 i j k l 5             ",
"          m n o i 0 p q r s t u v w x y p q 0 z A B C           ",
"        D E F G q p p H I J K L M N O P Q p p q G R S T         ",
"      U V W X p p p p p Q Y Z `  ...+.@.H p p p p G R #.$.      ",
"    %.&.*.G =.-.;.p p p H >.,.'.).!.~.{.Q p p ].Q ^.< /.(._.    ",
"    :.- i ;.<.[.}.|.p p p 1.2.3.4.5.6.p p p 7.8.9.0.a.( b.3     ",
"  c.d.e.p f.g.h.i.j.|.p p q k.l.m.n.o.p p p.q.r.s.t.u.q v.w.x.  ",
"  y.z.A.=.B.C.D.E.F.].p q G.H.I.l.J.q p p K.L.M.N.O.P.Q.R.S.m   ",
"  6 T.0 U.V.W.X.Y.Z.K.p q `. +.+l.++p p p ;.@+#+$+%+=.p 0 &+*+  ",
"=+-+;+a.p c >+,+'+)+!+~+q {+]+.+l.++^+p /+(+_+:+<+[+U.p a.}+|+1+",
"2+3+4+q p 5+6+7+8+9+0+|.q {+]+.+l.a+q p : b+c+d+e+f+p p q g+h+i+",
"D j+k+p p p l+m+n+o+p+q+a.r+s+.+t+u+a.0 v+w+x+y+z+A+p p q B+1 D ",
"% C+f+p p p A+D+E+F+G+H+I+q ++l.J+K+o.L+M+N+O+P+G p p p p _ Q+R+",
"% S+f+p p p p q T+U+.+V+W+X+Y+t+J+o X+Z+J+J+`+ @p p p p p _ .@+@",
"D j+A.p p p p p 0 @@#@I.$@%@&@*@=@-@;@=@J+>@,@q p p p p q '@1 )@",
"!@3+~@q p 0 0 0 a.o.{@]@^@/@(@_@:@<@[@}@|@1@o.0 0 0 q p q 2@3@i+",
"4@5@6@a.7@W+8@9@0@a@b@c@d@e@f@g@h@i@j@k@l@m@1@n@/.o@p@a.a.e.q@r@",
"  s@t@0 ^+u@v@w@=@v@x@y@z@A@B@C@D@E@F@G@H@I@J@K@#@L@,@p 0 M@l   ",
"  N@O@P@p 0 Q@R@S@T@U@V@W@X@Y@Z@`@ #.#+#@###$#%#1@0 q q &#*#=#  ",
"  -#;#8 0 p q 0 a.>#-@,#'#)#!#~#{#]#^#/#(#_#:#0 q p p 0 <#w.[#  ",
"    }#|#1#q p p p ^+2#3#4#5#6#7#8#9#0#a#b#c#_ p p p q d#e#f#    ",
"    g#h#i#G p p q j#k#l#m#n#o#p#q#r#s#t#u+u#q+q p q < v#w#x#    ",
"      y#z#A#X p p B#C#f+D#E#F#G#H#I#J#K#: p p p p G L#M#N#      ",
"        O#P#Q#G q p _ R#S#T#U#V#W#X#9 p p p p q < Y#Z#`#        ",
"           $.$+$z a ;.@$#$$$%$&$*$=$|.p p q 0 d#v#-$;$          ",
"            >$,$'$j &#G )$!$~$~${$p q a.0 z ]$^$/$($            ",
"              _$:$<$[$o }+}$'@A.A.'@|$1$2$3$4$:$5$              ",
"                  6$~ 7$* 8$9$0$0$a$b$c$d$~ e$                  ",
"                        f$g$h$i$i$h$g$f$                        "};
