/* XPM */
static char * F:\Dev\dankcoin\dankcoin\share\pixmaps\bitcoin16_xpm[] = {
"16 16 184 2",
"  	c None",
". 	c #9C883A",
"+ 	c #9A8930",
"@ 	c #8F8327",
"# 	c #8E8122",
"$ 	c #99882E",
"% 	c #9D883B",
"& 	c #9C883C",
"* 	c #968B23",
"= 	c #90970E",
"- 	c #8A9A02",
"; 	c #8C9D0E",
"> 	c #9CA93C",
", 	c #92A013",
"' 	c #90960F",
") 	c #988C25",
"! 	c #9D883C",
"~ 	c #9E8A3C",
"{ 	c #939313",
"] 	c #889D00",
"^ 	c #829900",
"/ 	c #9CA942",
"( 	c #A0A390",
"_ 	c #BCBFB8",
": 	c #A2B04A",
"< 	c #819800",
"[ 	c #969516",
"} 	c #9D893B",
"| 	c #A79450",
"1 	c #929211",
"2 	c #899E00",
"3 	c #889B00",
"4 	c #849900",
"5 	c #96A52C",
"6 	c #ACA986",
"7 	c #ABAA9A",
"8 	c #9DAA51",
"9 	c #849800",
"0 	c #879B00",
"a 	c #849D00",
"b 	c #959314",
"c 	c #A79451",
"d 	c #978B22",
"e 	c #809A00",
"f 	c #568704",
"g 	c #769201",
"h 	c #859900",
"i 	c #B39F2A",
"j 	c #B09F36",
"k 	c #879B0B",
"l 	c #698B03",
"m 	c #497F07",
"n 	c #829B00",
"o 	c #9A8C24",
"p 	c #A28E46",
"q 	c #91970A",
"r 	c #779900",
"s 	c #36700F",
"t 	c #567B07",
"u 	c #899C00",
"v 	c #899B03",
"w 	c #B79F2F",
"x 	c #B49F2B",
"y 	c #869A00",
"z 	c #50750C",
"A 	c #43770D",
"B 	c #819B00",
"C 	c #93970D",
"D 	c #A28E45",
"E 	c #9A8A32",
"F 	c #8B9B02",
"G 	c #869D00",
"H 	c #578407",
"I 	c #517415",
"J 	c #7F9601",
"K 	c #8A9B03",
"L 	c #B79F31",
"M 	c #B49F2E",
"N 	c #889C01",
"O 	c #829506",
"P 	c #52761A",
"Q 	c #6A8B04",
"R 	c #889C00",
"S 	c #8C9C04",
"T 	c #9D8B33",
"U 	c #8F8328",
"V 	c #7C9504",
"W 	c #7B8D21",
"X 	c #A79D22",
"Y 	c #879B01",
"Z 	c #B69F2F",
"` 	c #B19E2B",
" .	c #869B01",
"..	c #88941E",
"+.	c #819902",
"@.	c #8A9C01",
"#.	c #92842B",
"$.	c #849A00",
"%.	c #829A00",
"&.	c #9B9D14",
"*.	c #C0A039",
"=.	c #A4A31A",
"-.	c #B7A52B",
";.	c #B0A524",
">.	c #A6A41C",
",.	c #BEA136",
"'.	c #949C0C",
").	c #839A00",
"!.	c #859A00",
"~.	c #8A9C02",
"{.	c #9A8A31",
"].	c #899B02",
"^.	c #8C9B08",
"/.	c #959C0F",
"(.	c #8A9C06",
"_.	c #999A17",
":.	c #817222",
"<.	c #796E1D",
"[.	c #6E6817",
"}.	c #887724",
"|.	c #949812",
"1.	c #8E9D09",
"2.	c #989C12",
"3.	c #889B04",
"4.	c #9D8A33",
"5.	c #A18E45",
"6.	c #8E960B",
"7.	c #A39D1E",
"8.	c #B1A02A",
"9.	c #A89E23",
"0.	c #423D10",
"a.	c #1F1B0A",
"b.	c #63581C",
"c.	c #201F08",
"d.	c #504C11",
"e.	c #B5A42A",
"f.	c #9D9D18",
"g.	c #859B02",
"h.	c #92970D",
"i.	c #879D00",
"j.	c #8A9B06",
"k.	c #AAA71E",
"l.	c #696119",
"m.	c #201D09",
"n.	c #595018",
"o.	c #28240C",
"p.	c #54560C",
"q.	c #8B9F02",
"r.	c #988B25",
"s.	c #A69451",
"t.	c #939212",
"u.	c #859C00",
"v.	c #8A9B05",
"w.	c #9DA213",
"x.	c #4A4E08",
"y.	c #171803",
"z.	c #5D6B01",
"A.	c #7B8806",
"B.	c #869B00",
"C.	c #969315",
"D.	c #A89554",
"E.	c #9C873A",
"F.	c #949315",
"G.	c #7E9600",
"H.	c #384300",
"I.	c #2B3103",
"J.	c #647202",
"K.	c #8DA400",
"L.	c #839B00",
"M.	c #899D01",
"N.	c #969416",
"O.	c #9C883D",
"P.	c #968B24",
"Q.	c #919710",
"R.	c #8C9B05",
"S.	c #899C02",
"T.	c #939711",
"U.	c #988B26",
"V.	c #9C873C",
"W.	c #9B8639",
"X.	c #91842A",
"Y.	c #91832A",
"Z.	c #9A8830",
"`.	c #9C873B",
"          . + @ # $ %           ",
"      & * = - ; > , ' ) !       ",
"    ~ { ] ^ / ( _ : < ] [ }     ",
"  | 1 2 3 4 5 6 7 8 9 0 a b c   ",
"  d e f g 3 h i j k 3 l m n o   ",
"p q r s t u v w x 3 y z A B C D ",
"E F G H I J K L M N O P Q R S T ",
"U R 0 V W X Y Z `  .` ..+.y @.#.",
"U R $.%.&.*.=.-.;.>.,.'.).!.~.#.",
"{.].^./.(._.:.<.[.}.|.1.2.3.S 4.",
"5.6.(.7.8.9.0.a.b.c.d.e.f.g.h.p ",
"  * i.%.j.k.l.m.n.o.p.q.%.] r.  ",
"  s.t.u.v.w.x.y.z.A./.B.G C.D.  ",
"    E.F.2 G.H.I.J.K.L.M.N.%     ",
"      O.P.Q.R.~.S.R.T.U.V.      ",
"          W.+ X.Y.Z.`.          "};
